<svg xmlns="http://www.w3.org/2000/svg" width="141" height="150" viewBox="0 0 141 150" fill="none"><path d="M0.88332 65.6035C0.0879366 59.9775 0.510463 58.0326 2.72494 57.126C4.43591 56.426 6.0965 56.7449 7.5433 58.0521C9.01026 59.3772 9.88087 61.2019 11.161 65.6338C12 68.5382 16.5812 87.166 16.5812 87.6723C16.5812 87.8555 15.951 88.106 15.1804 88.2295C14.1932 88.3871 13.45 88.8291 12.6611 89.7274C11.6822 90.8427 11.5447 91.2584 11.5587 93.0586C11.5677 94.1898 11.77 95.5506 12.0086 96.0825C12.2472 96.6145 13.8772 98.6389 15.6307 100.581C19.7839 105.182 33.8557 119.409 34.2527 119.409C34.4215 119.409 34.8329 118.992 35.1672 118.482L35.7744 117.555L28.9114 110.654C21.225 102.926 14.5178 95.5459 14.0223 94.2726C13.3438 92.5285 15.6541 89.9462 17.482 90.4051C18.0622 90.5505 21.5237 93.6532 26.1733 98.1951C30.6083 102.527 34.6965 106.203 35.7682 106.822C36.795 107.416 39.8913 108.632 42.6485 109.526C50.1255 111.949 53.4877 113.817 57.2522 117.641C60.8703 121.315 63.1766 125.885 64.2915 131.587C64.8152 134.264 65.0329 147.505 64.5813 149.191L64.3642 150H42.854V146.736C42.854 143.704 42.7777 143.361 41.7836 141.916C40.2616 139.704 38.3451 138.113 29.0442 131.341C13.1765 119.787 10.4024 117.582 9.49937 115.81C8.93756 114.707 8.27679 111.836 7.42851 106.812C6.74361 102.754 5.84134 97.4969 5.4235 95.1291C4.67598 90.8927 1.97886 73.3526 0.88332 65.6035Z" fill="#49ACFF"></path><path d="M126.879 78.38C130.641 62.1452 131.906 58.588 134.344 57.3866C137.638 55.7627 140.743 57.704 140.746 61.3905C140.748 64.2967 132.991 112.301 132.098 114.9C131.455 116.773 130.385 117.706 120.773 124.77C105.291 136.148 104.19 136.977 102.308 138.669C99.6994 141.014 98.2789 143.301 98.2789 145.153C98.2789 145.983 98.1759 147.412 98.05 148.331L97.8211 150H76.2622L76.4087 140.733C76.5455 132.106 76.6175 131.263 77.4535 128.539C79.7889 120.928 86.3935 113.866 93.7808 111.081C95.1661 110.559 97.9161 109.611 99.8919 108.975C101.868 108.34 104.218 107.448 105.114 106.994C107.292 105.89 111.754 101.918 117.997 95.5232C123.57 89.8159 124.18 89.474 126.095 90.9809C127.305 91.9325 127.635 93.4974 126.918 94.8833C126.284 96.1092 117.311 105.685 110.02 112.917L105.135 117.762L105.908 118.585C106.334 119.038 106.877 119.409 107.114 119.409C107.519 119.409 121.547 105.111 126.814 99.3303C129.998 95.8353 130.551 93.9555 129.243 91.0741C128.549 89.5445 126.754 88.1013 125.541 88.0988C125.18 88.0981 124.913 87.8285 124.916 87.4676C124.918 87.1213 125.801 83.0318 126.879 78.38Z" fill="#49ACFF"></path><path fill-rule="evenodd" clip-rule="evenodd" d="M51.2571 3.75285C55.708 1.98538 60.2589 0.812811 64.5734 0.321905C70.8922 -0.397179 78.759 0.116401 84.168 1.60136C87.5417 2.52738 94.5763 5.46166 97.2954 7.07726C108.395 13.671 117.203 24.3205 121.066 35.8148C122.041 38.7171 122.075 38.9852 121.499 39.1986C120.765 39.47 107.438 40.8261 102.093 41.1734C99.7801 41.3238 98.4042 41.5617 98.4042 41.8115C98.4042 42.0307 98.6475 43.4804 98.9444 45.033C99.2417 46.5856 99.3857 48.0162 99.2644 48.2123C99.1348 48.4222 97.8424 48.5039 96.1232 48.411L93.2022 48.2534L92.9629 47.0311C92.8312 46.3589 92.613 44.8775 92.4788 43.7395L92.2341 41.67H73.5563L73.7509 56.4455L124.419 56.4167L124.191 58.3108C124.066 59.3527 123.962 60.6506 123.96 61.1947L123.957 62.1845H99.6016L98.9718 66.0498C98.6256 68.1754 98.0727 70.7195 97.7434 71.7031L97.1446 73.4919L93.9054 74.279C92.1239 74.7123 90.6318 75.0351 90.5897 74.997C90.5472 74.9588 90.7603 74.1253 91.0626 73.1445C91.6356 71.286 93.3577 63.4171 93.3627 62.6343C93.3649 62.2852 91.1479 62.1845 83.4683 62.1845H73.571V84.9677L77.3154 84.7384C88.5872 84.0489 102.518 80.5308 118.153 74.4258C119.216 74.0105 120.224 73.7182 120.392 73.7762C120.91 73.9543 117.207 81.2427 114.715 84.9529C111.767 89.3409 106.83 94.5918 102.77 97.6571C99.6614 100.004 91.9328 104.068 88.5069 105.158C74.9455 109.471 59.4038 108.592 47.3302 102.831C37.7626 98.265 29.5298 90.5652 24.304 81.2949C22.5772 78.2318 20.6654 74.0756 20.6654 73.3846C20.6654 73.1982 22.5686 73.8532 24.8943 74.84C33.6755 78.5658 42.5176 81.2441 51.437 82.8802C56.58 83.8239 64.5321 84.8583 66.6407 84.8583H67.8126V62.1845H47.9251L48.1655 63.9966C48.298 64.9931 48.8976 67.7611 49.4983 70.148C50.0989 72.5349 50.5027 74.5755 50.3955 74.6828C50.2882 74.79 48.8173 74.5874 47.1269 74.2325L44.0529 73.5876L43.322 71.2219C42.9203 69.9205 42.3254 67.3548 42.0004 65.5204L41.4094 62.1845H17.5206L17.2975 60.8348C17.1747 60.0927 17.0725 58.7971 17.0704 57.9556L17.0664 56.426H67.8273L67.6326 41.5174L49.2776 41.6794L48.2274 48.0785L46.953 48.2894C46.2519 48.4053 44.8285 48.5021 43.7891 48.5042C43.727 48.5044 43.6668 48.5047 43.6083 48.505C43.5703 48.5053 43.5331 48.5055 43.4966 48.5058C42.8005 48.5107 42.3746 48.5137 42.1487 48.3026C41.7926 47.9696 41.9343 47.1041 42.2996 44.8733C42.3305 44.6852 42.3628 44.4874 42.3967 44.2793C42.8552 41.4606 42.8462 41.3101 42.2171 41.3101C38.3607 41.3101 19.7714 39.4567 19.3442 39.0294C18.9714 38.6562 21.3658 32.2722 23.0782 29.0734C25.6699 24.2331 28.1046 20.9396 32.3622 16.5164C38.5785 10.058 43.1427 6.97469 51.2571 3.75285ZM64.2135 6.57592C58.3061 7.5876 52.3789 9.63796 47.9741 12.1929C45.2676 13.7632 40.7652 17.0768 38.1621 19.4143L36.4039 20.9932L40.6814 20.7388C47.8981 20.3098 50.5373 20.2327 50.5373 20.4512C50.5373 20.5667 50.0327 21.1368 49.4158 21.7181C48.799 22.2993 47.6602 23.6252 46.8854 24.6646L45.476 26.5541H31.989L30.1384 29.3433C28.4041 31.9573 27.5036 33.5005 27.5036 33.8586C27.5036 34.0353 29.9181 34.3053 38.3006 35.0666C46.2724 35.7903 82.4451 36.1283 94.4453 35.5906C102.518 35.2292 113.459 34.293 113.819 33.9331C114.029 33.7226 112.233 30.667 110.622 28.4979L109.26 26.6631L97.9839 26.4421C90.084 26.2877 84.9291 26.0041 80.769 25.4949C80.1465 25.4187 79.5774 25.348 79.0573 25.2834L79.055 25.2831C75.128 24.7952 73.9881 24.6536 73.6719 25.0981C73.5426 25.2798 73.551 25.5596 73.5629 25.9538L73.5629 25.9542C73.5668 26.082 73.571 26.2218 73.571 26.3741V27.9937H67.854L67.6326 24.9345L65.4732 25.0508C64.2855 25.1148 61.0694 25.3984 58.3266 25.6806C52.557 26.2748 51.617 26.3047 51.617 25.8954C51.617 25.452 56.0204 21.1868 57.3416 20.3504C58.3662 19.7015 62.6174 19.1138 67.0028 19.0145C67.8118 18.9961 67.8126 18.9907 67.8126 12.5179C67.8126 7.55557 67.7075 6.0483 67.3627 6.07673C67.1154 6.09689 65.6981 6.32147 64.2135 6.57592ZM78.1597 19.2956L73.571 18.8882V6.39956H74.971C78.6902 6.39956 86.0632 8.49131 90.8682 10.9099C94.3478 12.6615 99.3432 16.1029 102.005 18.5822L104.343 20.7604L99.124 20.5815C92.8146 20.3656 84.372 19.8477 78.1597 19.2956ZM104.882 85.0951C98.7091 87.487 86.8704 89.9757 79.5094 90.4288C77.5299 90.5508 75.3842 90.7311 74.7407 90.8298L73.571 91.0094V101.844L75.8204 101.594C86.2773 100.431 95.4012 96.2132 102.984 89.0382C105.461 86.6938 107.814 84.0589 107.336 84.1637C107.273 84.1773 106.169 84.5966 104.882 85.0951ZM37.2101 87.8634C35.6327 86.3558 34.3417 85.0055 34.3417 84.8622C34.3417 84.719 35.6777 85.0756 37.3109 85.6554C43.5588 87.8728 51.5227 89.4215 60.9744 90.2568C63.4488 90.4756 65.9994 90.7344 66.6429 90.8319L67.8126 91.0094V96.3913C67.8126 99.579 67.9612 101.016 67.3486 101.511C66.7549 101.991 65.4462 101.588 62.5944 101.037C52.4063 99.0712 44.8213 95.1345 37.2101 87.8634Z" fill="#A4DF3F"></path></svg>