<svg xmlns="http://www.w3.org/2000/svg" width="189" height="150" viewBox="0 0 189 150" fill="none"><path d="M173.701 58.7512C174.985 57.8377 177.79 52.9302 177.79 51.5996C177.79 51.2332 178.516 52.3844 179.403 54.1582C181.163 57.6755 182.829 59.2383 186.173 60.5074L188.282 61.308L186.311 62.0856C185.227 62.513 183.606 63.366 182.708 63.9805C180.976 65.1665 178.693 68.8338 178.693 70.4305C178.693 72.066 177.907 71.4814 177.161 69.291C175.81 65.325 174.165 63.8784 168.528 61.6966C167.78 61.407 168.034 61.2036 170.005 60.5173C171.314 60.0615 172.978 59.2663 173.701 58.7512Z" fill="#49ACFF"></path><path d="M2.59838 59.9034C5.12669 58.9731 7.15757 56.7299 8.25863 53.6526C8.68061 52.4725 9.14959 51.5065 9.30004 51.5065C9.45094 51.5065 9.80832 52.2868 10.0943 53.241C10.9957 56.25 13.0207 58.5348 16.093 60.0091L18.9019 61.3573L16.6284 62.3354C13.6776 63.605 11.7335 65.654 10.4246 68.8749C9.29869 71.6449 9.23543 71.6476 8.36706 68.9549C7.56058 66.4559 4.95636 63.7862 2.08648 62.5171C0.709827 61.9085 -0.196945 61.2633 0.0366395 61.0586C0.267061 60.8571 1.41961 60.3371 2.59838 59.9034Z" fill="#49ACFF"></path><path d="M37.8854 57.8318C34.847 57.8318 33.5413 54.75 35.6761 52.6157C37.7784 50.513 40.8922 51.7853 40.8922 54.7464C40.8922 56.6657 39.7559 57.8318 37.8854 57.8318Z" fill="#49ACFF"></path><path d="M152.863 57.0841C151.702 56.0327 151.787 53.5817 153.026 52.4277C155.068 50.5252 158.362 51.9615 158.362 54.7546C158.362 57.3615 154.825 58.8601 152.863 57.0841Z" fill="#49ACFF"></path><path d="M38.7204 77.1655C38.5505 75.1315 38.8482 74.911 45.914 71.8297C48.7433 70.5963 51.1189 69.5851 51.1934 69.5829C51.2675 69.5806 51.9285 69.8892 52.6618 70.2683C54.244 71.0865 54.4492 72.7374 53.1213 73.9663C52.641 74.4109 49.7531 75.8666 46.7034 77.2012C42.2128 79.1666 40.9401 79.5516 40.0089 79.2263C39.1021 78.9095 38.8297 78.4735 38.7204 77.1655Z" fill="#49ACFF"></path><path d="M140.827 72.6561C140.737 71.8749 141.033 71.0942 141.657 70.4707C142.89 69.2381 143.373 69.3624 150.09 72.6303C155.081 75.0588 155.434 75.3177 155.563 76.6383C155.723 78.282 154.704 79.5348 153.247 79.4851C152.705 79.4666 149.721 78.1961 146.615 76.6613C141.66 74.213 140.95 73.7219 140.827 72.6561Z" fill="#49ACFF"></path><path d="M42.3339 91.1246C42.4654 89.7683 42.8016 89.5198 48.1053 86.8609C53.9476 83.9318 54.75 83.7904 56.4258 85.3984C57.0159 85.964 57.1898 86.5555 56.9951 87.3321C56.7719 88.2208 55.6618 88.9609 51.5928 90.9321C44.9879 94.1327 44.7086 94.2127 43.3284 93.3082C42.4415 92.7271 42.225 92.2518 42.3339 91.1246Z" fill="#49ACFF"></path><path d="M138.37 88.6595C137.326 87.7401 137.369 86.5058 138.483 85.3921C139.83 84.0443 141.052 84.2607 146.329 86.7814C152.241 89.6056 153.552 91.1485 151.741 93.15C151.33 93.6046 150.546 93.9764 150 93.9764C148.877 93.9764 139.58 89.7267 138.37 88.6595Z" fill="#49ACFF"></path><path d="M23.3047 91.4305C22.0297 89.8098 22.1273 88.7259 23.6887 87.1645C24.4152 86.438 25.2385 85.8439 25.5186 85.8439C26.4448 85.8439 28.5791 87.1536 28.8647 87.8973C30.2318 91.4603 25.6288 94.3853 23.3047 91.4305Z" fill="#49ACFF"></path><path d="M166.953 89.3454C166.962 87.53 167.34 86.907 168.75 86.3856C170.231 85.8375 171.309 86.1809 172.379 87.5417C173.517 88.988 173.506 89.9422 172.335 91.4305C170.485 93.7835 166.939 92.41 166.953 89.3454Z" fill="#49ACFF"></path><path d="M67.097 108.284C67.097 106.71 67.182 105.338 67.2854 105.234C67.3889 105.131 81.0109 105.046 97.5565 105.046H127.639V111.145H67.097V108.284Z" fill="#49ACFF"></path><path d="M20.8275 121.727C25.5719 120.143 28.1779 117.783 29.6151 113.767C30.1921 112.155 30.9525 111.846 30.9525 113.223C30.9525 114.326 32.5894 117.163 33.9606 118.437C35.4028 119.777 38.6865 121.537 39.7446 121.537C41.1263 121.537 40.3898 122.275 37.8425 123.445C34.5588 124.953 32.9915 126.592 31.6311 129.939C30.7591 132.085 30.4925 132.42 30.2345 131.695C28.6207 127.16 27.1274 125.448 23.1073 123.521C20.6666 122.352 20.1574 121.951 20.8275 121.727Z" fill="#49ACFF"></path><path d="M153.656 121.721C158.765 119.971 161.429 117.565 162.447 113.786C162.704 112.831 163.003 112.049 163.111 112.049C163.219 112.049 163.741 113.058 164.272 114.291C165.47 117.078 168.914 120.374 171.408 121.121C172.433 121.428 173.271 121.8 173.27 121.947C173.269 122.094 172.365 122.586 171.261 123.04C168.19 124.303 165.384 127.028 164.19 129.908L163.156 132.404L162.322 130.168C161.239 127.266 158.596 124.576 155.823 123.555C153.063 122.538 152.547 122.101 153.656 121.721Z" fill="#49ACFF"></path><path d="M54.8982 114.764L96.5775 114.649C119.501 114.586 138.409 114.596 138.596 114.673C138.782 114.75 138.934 120.595 138.934 127.663V140.513H132.157V121.085H62.1452L61.9013 140.287L54.8982 140.55V114.764Z" fill="#49ACFF"></path><path d="M96.6601 138.253H65.7868V124.247H127.639L127.775 131.063C127.849 134.813 127.826 137.964 127.722 138.066C127.618 138.169 113.641 138.253 96.6601 138.253Z" fill="#49ACFF"></path><path d="M144.975 148.984L144.703 150H48.1211V143.675H145.26L145.253 145.821C145.25 147.001 145.125 148.425 144.975 148.984Z" fill="#49ACFF"></path><path d="M86.6486 86.1827C86.8234 85.7097 88.0311 81.9091 88.5669 80.1457C88.6758 79.7874 89.4742 79.7671 91.356 80.0752C94.0695 80.5198 104.711 80.2911 106.025 79.7603C106.619 79.5204 106.955 80.063 107.746 82.5402C108.287 84.2327 108.836 85.8723 108.966 86.1827C109.152 86.6259 106.752 86.7475 97.8213 86.7475C88.9067 86.7475 86.4855 86.625 86.6486 86.1827Z" fill="#FFCC4A"></path><path d="M80.1313 96.0484C82.0654 94.4481 84.0421 92.4073 84.5237 91.5131L85.3993 89.8871L109.894 89.9621L111.282 91.9315C112.045 93.0145 114.16 95.0228 115.981 96.3945C118.802 98.5184 120.874 100.824 120.874 101.84C120.874 101.988 114.368 102.109 106.417 102.109H91.9587V100.279C91.9587 98.0476 92.8921 96.1021 95.0368 93.8634L96.6602 92.1692H93.6841C90.7722 92.1692 90.6724 92.2089 89.0296 94.0274C87.095 96.1686 85.6577 99.0719 85.6433 100.866L85.6334 102.109H80.4376C77.5799 102.109 75.2418 101.997 75.2418 101.86C75.2418 100.79 77.1679 98.5003 80.1313 96.0484Z" fill="#FFCC4A"></path><path fill-rule="evenodd" clip-rule="evenodd" d="M59.6368 6.9529C59.0255 3.64115 58.5249 0.722027 58.5249 0.466304C58.5249 0.150039 71.1502 0.000488281 97.8322 0.000488281H137.139V1.09024C137.139 1.68979 136.83 3.77352 136.452 5.72127C135.478 10.7354 131.684 37.618 131.917 37.8511C132.281 38.2143 136.553 36.5702 138.542 35.3011C144.133 31.7341 146.452 27.394 147.448 18.633C147.809 15.45 147.793 15.3601 146.885 15.6154C144.594 16.2588 140.364 18.6583 138.588 20.3219C137.521 21.3213 136.587 22.139 136.513 22.139C136.363 22.139 137.474 13.4449 137.823 11.8925C138.064 10.8177 138.615 10.5755 149.696 6.67774C153.248 5.4285 156.265 4.51766 156.401 4.65366C156.964 5.21706 154.699 23.4353 153.553 27.5607C151.126 36.2969 144.28 42.6434 133.53 46.1228L129.694 47.3643L128.496 51.3556C125.838 60.2065 123.093 65.0919 118.163 69.7424C112.356 75.221 106.408 77.3892 97.1545 77.4009C92.4891 77.4068 91.2602 77.2451 88.3442 76.2407C83.3029 74.5044 80.8081 72.9434 77.0219 69.1555C72.7144 64.8461 70.2606 60.6023 67.8498 53.2912L65.9797 47.621L61.6876 46.1282C56.0757 44.1764 52.3718 42.0967 49.0808 39.0497C44.9165 35.1945 43.0442 31.8475 41.5171 25.5276C40.8132 22.6152 38.5831 4.88226 38.8831 4.58226C39.0647 4.40064 56.6946 10.2714 57.545 10.7964C57.7953 10.9514 58.2236 12.8042 58.4969 14.9142C58.7698 17.0241 59.1163 19.5543 59.2663 20.536L59.5388 22.322L57.1984 20.218C54.8707 18.1252 51.3217 16.1309 48.8951 15.5526L47.6242 15.2494L47.9382 18.1297C48.4153 22.5 49.8236 27.5653 51.0968 29.489C53.012 32.3833 55.8032 34.7521 59.1629 36.3348C63.3077 38.2871 64.51 38.5826 64.2145 37.5759C63.7713 36.0655 63.0421 31.2014 61.908 22.1878C61.2705 17.1204 60.2486 10.2646 59.6368 6.9529ZM89.3197 8.85637C88.7517 9.25396 88.1179 10.0247 87.9109 10.5687C87.4099 11.8871 88.1567 28.2055 89.0296 35.0156C89.9273 42.0172 91.9207 49.9265 94.281 55.8515C95.3129 58.4422 96.202 60.5065 96.2571 60.4392C96.3123 60.3719 96.254 49.046 96.1279 35.2704L95.898 10.224L94.8525 9.17851C93.5978 7.92384 90.8775 7.76525 89.3197 8.85637ZM70.5877 9.63482L71.6599 8.88392C73.0889 7.88271 74.5925 7.93557 75.6823 9.02533C76.8999 10.2429 76.9654 10.7399 77.2298 20.7836C77.5718 33.7884 79.4522 46.711 82.4847 56.8939C83.195 59.2794 83.6007 61.3948 83.3888 61.6089C82.8276 62.1755 80.5559 60.69 79.398 58.9997C78.0755 57.0701 75.5318 49.435 74.1326 43.1969C72.5788 36.2679 71.2004 25.0731 70.8674 16.6776L70.5877 9.63482Z" fill="#FFCC4A"></path></svg>