<svg xmlns="http://www.w3.org/2000/svg" width="142" height="150" viewBox="0 0 142 150" fill="none"><path d="M61.7303 4.6539C60.3657 3.3715 60.7668 1.00115 62.4646 0.317204C63.6204 -0.148425 63.9224 -0.120905 64.8591 0.535159C66.114 1.41395 66.4897 2.71727 65.8473 3.96005C64.9674 5.66148 63.1324 5.97043 61.7303 4.6539Z" fill="#49ACFF"></path><path d="M76.4756 5.4516C73.6514 5.4516 72.7179 1.35267 75.307 0.320506C76.4011 -0.115402 77.4186 0.200522 78.402 1.28222C79.4279 2.41052 79.4448 3.24197 78.4669 4.48475C77.9155 5.18595 77.3684 5.4516 76.4756 5.4516Z" fill="#49ACFF"></path><path d="M48.4058 5.67579C48.4058 4.5607 49.1558 3.21959 49.9597 2.89669C52.0483 2.05753 53.6895 3.10107 53.6895 5.26814C53.6895 6.84372 52.5829 8.02008 51.1005 8.02008C50.1164 8.02008 48.4058 6.53183 48.4058 5.67579Z" fill="#49ACFF"></path><path d="M87.2794 7.34347C86.0564 6.35314 86.1471 4.48989 87.4739 3.34875C88.6668 2.32246 90.0218 2.44537 91.0609 3.67311C93.1256 6.11317 89.7756 9.3645 87.2794 7.34347Z" fill="#49ACFF"></path><path d="M37.5312 11.3998C36.5493 10.1072 37.1346 7.88505 38.6144 7.2888C39.7049 6.84959 39.8927 6.85436 40.8163 7.34604C43.1103 8.5679 43.11 11.1415 40.8159 12.3634C39.8773 12.8631 38.2893 12.3975 37.5312 11.3998Z" fill="#49ACFF"></path><path d="M100.509 12.4232C98.2068 12.4232 97.1732 9.82903 98.7014 7.88615C99.658 6.66943 101.194 6.60852 102.248 7.74489C104.006 9.63969 102.972 12.4232 100.509 12.4232Z" fill="#49ACFF"></path><path d="M27.1241 15.7255C27.1241 14.398 27.7464 13.4917 28.9587 13.0539C29.8342 12.738 30.9104 13.1431 31.8024 14.1246C32.8551 15.2826 32.8463 16.1647 31.7686 17.4174C30.05 19.4153 27.1241 18.3498 27.1241 15.7255Z" fill="#49ACFF"></path><path d="M110.536 18.294C107.576 18.294 106.85 14.7524 109.499 13.2334C110.457 12.6837 110.627 12.6907 111.858 13.3269C114.418 14.6508 113.448 18.294 110.536 18.294Z" fill="#49ACFF"></path><path d="M21.4635 25.9995C18.614 25.9995 17.6636 21.9152 20.2681 20.8647C20.7091 20.6871 21.2896 20.6137 21.5586 20.7021C21.8271 20.7902 22.1988 20.8625 22.3841 20.8625C23.1173 20.8625 24.1887 22.3874 24.1887 23.431C24.1887 24.9148 23.038 25.9995 21.4635 25.9995Z" fill="#49ACFF"></path><path d="M116.801 22.0341C117.115 21.4261 117.582 20.8445 117.839 20.741C120.725 19.5797 123.103 22.9037 120.993 25.1504C118.888 27.3912 115.379 24.7831 116.801 22.0341Z" fill="#49ACFF"></path><path d="M12.7512 34.1984C11.693 33.2407 11.853 31.0014 13.047 30.0624C14.3631 29.027 15.2434 29.1062 16.5115 30.3743C17.7796 31.6424 17.8588 32.5227 16.8234 33.8388C15.9222 34.9844 13.8245 35.1697 12.7512 34.1984Z" fill="#49ACFF"></path><path d="M124.019 33.8388C122.984 32.5227 123.063 31.6424 124.331 30.3743C124.972 29.7344 125.792 29.3018 126.366 29.3018C127.6 29.3018 129.13 30.8245 129.13 32.0537C129.13 34.5088 125.534 35.7648 124.019 33.8388Z" fill="#49ACFF"></path><path d="M124.406 41.0889L126.493 40.3613C127.64 39.961 128.796 39.6205 129.062 39.6047C131.451 39.4612 134.03 45.4355 132.226 46.9326C131.401 47.6176 128.172 47.7457 125.827 47.1869C124.182 46.7946 123.822 46.5726 123.877 45.9844C123.915 45.5878 124.049 44.3237 124.176 43.176L124.406 41.0889Z" fill="#49ACFF"></path><path d="M7.4253 45.0158C6.337 43.9931 6.31425 42.2869 7.37393 41.1586C8.43178 40.0329 10.0239 40.0546 11.1793 41.2104C13.7214 43.7521 10.0463 47.4778 7.4253 45.0158Z" fill="#49ACFF"></path><path d="M3.07796 56.0635C2.43548 54.8207 2.81121 53.5174 4.06609 52.6386C5.21567 51.8336 5.99356 51.9011 7.16368 52.9072C9.01776 54.5023 8.02229 57.5551 5.64828 57.5551C4.3068 57.5551 3.6533 57.176 3.07796 56.0635Z" fill="#49ACFF"></path><path d="M133.926 56.5882C132.891 55.2721 132.97 54.3918 134.238 53.1237C134.828 52.5337 135.579 52.0512 135.908 52.0512C136.814 52.0512 138.552 53.05 138.809 53.7189C139.924 56.626 135.843 59.025 133.926 56.5882Z" fill="#49ACFF"></path><path d="M0.723399 69.3147C-0.185477 68.4058 -0.242718 67.2063 0.57883 66.2986C1.13619 65.6829 1.93682 65.6275 10.3024 65.6275C18.9295 65.6275 19.4579 65.6667 20.1525 66.3613C21.0206 67.2295 21.0705 68.1046 20.3092 69.1133C19.7852 69.8071 19.2572 69.853 10.615 69.9568C1.81574 70.0621 1.44698 70.0383 0.723399 69.3147Z" fill="#49ACFF"></path><path d="M115.635 69.4593C114.66 68.7764 114.56 67.2562 115.427 66.2986C115.992 65.674 116.878 65.6275 128.148 65.6275C141.477 65.6275 141.605 65.6487 141.605 67.865C141.605 69.9608 141.174 70.0306 128.212 70.0306C118.161 70.0306 116.332 69.9476 115.635 69.4593Z" fill="#49ACFF"></path><path d="M1.18279 82.3589C-0.423245 81.8467 -0.363069 79.1318 1.26645 78.5887C2.52611 78.1686 13.2484 78.4515 13.823 78.9197C14.522 79.4896 14.3701 81.2941 13.5599 82.0492C12.9215 82.644 12.2104 82.7156 7.41393 82.669C4.43045 82.64 1.62677 82.5002 1.18279 82.3589Z" fill="#49ACFF"></path><path d="M124.635 80.5217C124.635 78.6148 125.028 78.4966 131.828 78.3657C135.288 78.2989 138.604 78.2971 139.196 78.3613C141.574 78.6203 142.368 80.7518 140.603 82.1399C139.646 82.8932 139.297 82.9225 132.727 82.8088C125.228 82.6789 124.635 82.5108 124.635 80.5217Z" fill="#49ACFF"></path><path d="M3.66761 95.1155C2.70737 93.8951 2.69746 92.6226 3.64083 91.6792C5.24319 90.0768 8.41086 91.3376 8.41086 93.5777C8.41086 95.9733 5.16908 97.0242 3.66761 95.1155Z" fill="#49ACFF"></path><path d="M124.708 94.229C123.876 93.3975 124.008 92.1973 125.017 91.404C125.429 91.0804 127.33 90.9453 131.469 90.9453C136.99 90.9453 137.388 90.9927 138.187 91.743C139.158 92.6552 139.285 94.0961 138.495 95.2248C137.659 96.4177 136.264 96.5938 134.483 95.7312C133.234 95.1268 132.21 94.9815 129.197 94.9815C125.919 94.9815 125.368 94.8894 124.708 94.229Z" fill="#49ACFF"></path><path d="M8.05898 104.853C8.30556 104.257 8.77449 103.614 9.10105 103.423C11.5055 102.018 14.5334 104.981 13.0334 107.27C11.2362 110.013 6.81217 107.863 8.05898 104.853Z" fill="#49ACFF"></path><path d="M128.878 107.76C127.79 106.737 127.767 105.031 128.826 103.903C129.884 102.777 131.476 102.799 132.632 103.955C135.174 106.496 131.499 110.222 128.878 107.76Z" fill="#49ACFF"></path><path d="M15.3825 117.063C15.3825 116.678 15.7248 115.927 16.1431 115.395C17.6644 113.461 21.2533 114.612 21.2533 117.035C21.2533 118.292 19.7426 119.566 18.2518 119.566C17.0237 119.566 15.3825 118.134 15.3825 117.063Z" fill="#49ACFF"></path><path d="M58.5348 120.924C57.6589 120.283 57.8765 118.424 58.8859 117.923C59.9339 117.403 89.8582 117.633 90.5003 118.165C91.2308 118.772 91.0778 120.582 90.2596 121.02C89.1298 121.625 59.3699 121.534 58.5348 120.924Z" fill="#49ACFF"></path><path d="M38.5806 127.8C37.4288 126.994 37.5679 126.001 38.9575 125.112C40.1037 124.377 40.6233 124.348 52.3503 124.342C64.0658 124.336 64.5795 124.365 65.2844 125.069C66.2681 126.053 66.2087 126.701 65.0514 127.611C64.1168 128.346 63.6732 128.372 51.7404 128.372C41.1616 128.372 39.2793 128.29 38.5806 127.8Z" fill="#49ACFF"></path><path d="M82.64 127.416C82.0001 126.541 82.0393 125.814 82.7702 125.007C83.3118 124.408 84.0328 124.336 89.4377 124.336C94.5618 124.336 95.6016 124.43 96.1689 124.943C97.0191 125.712 97.0246 126.623 96.184 127.384C95.6384 127.878 94.4814 127.986 89.3221 128.023C83.7679 128.064 83.0667 128 82.64 127.416Z" fill="#49ACFF"></path><path d="M72.9898 134.212C72.9898 133.344 73.2148 133.012 74.0363 132.666C74.8094 132.34 78.1217 132.273 86.7092 132.408C96.5061 132.562 98.3899 132.678 98.6827 133.142C99.2573 134.052 99.0867 135.293 98.332 135.697C97.8854 135.936 93.3146 136.077 86.0157 136.077C78.7168 136.077 74.146 135.936 73.6995 135.697C73.239 135.451 72.9898 134.93 72.9898 134.212Z" fill="#49ACFF"></path><path d="M51.6839 135.697C50.8796 135.267 50.7171 133.546 51.4146 132.848C51.9712 132.292 60.9833 132.24 62.0063 132.788C62.8649 133.248 62.9364 134.703 62.1395 135.501C61.6768 135.963 60.6567 136.077 56.9783 136.077C54.4568 136.077 52.0743 135.906 51.6839 135.697Z" fill="#49ACFF"></path><path d="M48.6652 146.345C47.4272 145.371 47.3017 143.419 48.4058 142.315C48.8135 141.907 49.6288 141.581 50.2404 141.581C51.7111 141.581 52.8089 142.733 52.8089 144.276C52.8089 146.508 50.4008 147.711 48.6652 146.345Z" fill="#49ACFF"></path><path d="M89.0399 146.718C86.6505 146.718 85.3736 144.073 86.9473 142.384C88.032 141.22 89.9602 141.299 90.9424 142.548C91.3607 143.08 91.7031 143.8 91.7031 144.15C91.7031 145.335 90.2688 146.718 89.0399 146.718Z" fill="#49ACFF"></path><path d="M60.6611 146.055C60.9756 145.447 61.4427 144.865 61.6992 144.762C64.6423 143.578 67.1344 147.333 64.6845 149.26C63.0461 150.549 61.3165 150.122 60.5356 148.238C60.168 147.35 60.19 146.966 60.6611 146.055Z" fill="#49ACFF"></path><path d="M73.5476 147.853C73.3094 146.769 73.8073 145.33 74.6043 144.797C75.5495 144.166 77.3405 144.518 78.1 145.483C79.0614 146.705 79.0669 147.826 78.1165 148.846C76.491 150.591 74.0315 150.056 73.5476 147.853Z" fill="#49ACFF"></path><path d="M57.0794 32.3631C55.6609 24.7325 57.163 20.646 62.0245 18.9105C64.6876 17.9597 67.5757 18.2056 71.3018 19.7004C73.5412 20.599 74.6096 20.8368 75.8073 20.7032C77.0625 20.5638 77.4485 20.6622 77.7336 21.1946C78.4411 22.5162 78.1413 24.1153 76.9664 25.2902C75.8583 26.3979 75.8033 26.4108 72.9302 26.2137C71.3282 26.104 70.0187 26.1224 70.0201 26.2548C70.0253 26.7502 72.5402 28.1849 73.7466 28.3808C74.9876 28.5823 75.0008 28.6043 75.0866 30.6539C75.134 31.7921 75.3453 33.3633 75.5559 34.1456C75.8906 35.388 75.8432 35.6691 75.1813 36.3739C74.7645 36.8172 74.1569 37.9627 73.831 38.9193C73.0051 41.3436 72.1094 41.8352 68.828 41.6654C66.5464 41.5472 65.9179 41.3568 64.4421 40.3367C63.4944 39.6821 62.18 38.3957 61.5207 37.4776C60.4445 35.9787 60.192 35.8202 59.0417 35.9193L57.7608 36.0297L57.0794 32.3631Z" fill="#A4DF3F"></path><path d="M63.5909 53.5747C62.0861 50.312 58.7049 41.3898 58.4051 39.892C58.0859 38.2955 58.8293 38.479 60.5358 40.4178C62.3462 42.4744 65.275 43.9297 68.1235 44.188L70.3074 44.3861L69.7607 45.7144C69.4598 46.4453 68.2226 49.107 67.0113 51.6296L64.8087 56.2162L63.5909 53.5747Z" fill="#A4DF3F"></path><path d="M124.37 41.0343L126.456 40.3066C127.603 39.9063 128.759 39.5658 129.025 39.55C131.414 39.4066 133.993 45.3809 132.189 46.8779C131.364 47.563 128.135 47.691 125.79 47.1322C124.145 46.7399 123.785 46.518 123.84 45.9298C123.878 45.5331 124.013 44.2691 124.14 43.1213L124.37 41.0343Z" fill="#A4DF3F"></path><path d="M25.2574 45.7562C26.4407 45.1526 38.9342 41.8305 44.3327 40.6842C46.4004 40.245 48.4629 40.1951 52.2767 40.4923L55.2671 40.7249L56.5899 44.0676C59.2145 50.6998 62.0193 58.0769 62.3947 59.335C62.7649 60.5753 62.6556 60.8152 59.2065 66.3327C55.7985 71.7834 53.3533 75.1422 53.0814 74.7459C52.8062 74.3449 48.0016 59.8554 48.0016 59.4268C48.002 59.1149 48.654 58.9681 50.0384 58.9681C52.3266 58.9681 53.8115 58.3443 54.9413 56.9078C55.5372 56.1501 55.7075 55.4111 55.7075 53.5798C55.7075 50.8037 55.2077 49.6897 53.1151 47.7993C51.687 46.5088 51.4673 46.4281 50.0645 46.6783C48.0468 47.0383 46.9996 47.0107 42.7634 46.4846C39.253 46.049 31.4903 46.271 31.4903 46.8075C31.4903 47.0412 41.7661 49.0934 42.8261 49.0718C43.2415 49.063 43.2914 49.5972 43.0918 51.9048C42.956 53.4686 42.7436 56.0283 42.6192 57.5922C42.4948 59.156 42.3268 60.4358 42.2457 60.4358C41.5661 60.4358 27.3698 57.4501 26.5284 57.1302C21.23 55.1158 20.4576 48.2051 25.2574 45.7562Z" fill="#A4DF3F"></path><path d="M78.7302 42.3438C85.4083 41.9633 103.631 40.9866 110.012 40.667C113.342 40.5 117.359 40.3393 118.939 40.3092L121.812 40.2549L121.604 41.2639C121.49 41.8187 121.145 44.2309 120.838 46.6236C120.532 49.0167 120.19 51.1218 120.079 51.3019C119.967 51.4821 119.493 51.6296 119.025 51.6296C116.684 51.6296 82.8435 57.7617 82.3254 58.2798C82.1514 58.4537 81.4084 62.9918 80.2904 70.7098C79.8666 73.636 79.434 76.3773 79.329 76.8015C79.1929 77.3518 78.16 78.0167 75.7225 79.1219L72.3068 80.6711L70.3533 80.0909C68.4079 79.5134 66.5288 79.6011 65.1085 80.3364C64.4994 80.6516 61.5177 79.9941 55.4194 78.2002C54.8646 78.0369 55.262 77.346 58.1457 73.4617C61.623 68.7779 64.1592 64.381 68.5161 55.4823C70.8872 50.6389 73.1346 45.9331 73.5103 45.0249C73.8857 44.1168 74.326 43.1925 74.4886 42.9713C74.6515 42.7496 76.5573 42.4678 78.7302 42.3438Z" fill="#A4DF3F"></path><path d="M46.6539 50.1414C47.0928 50.13 48.0295 49.9018 48.7359 49.6346C50.7173 48.885 51.1447 48.9657 52.3299 50.3156C54.4173 52.693 54.1656 55.8881 51.8206 56.7794C51.0691 57.0652 45.7454 56.6521 45.635 56.2995C45.6207 56.2536 45.6647 54.8538 45.7326 53.189C45.8478 50.3714 45.9116 50.1604 46.6539 50.1414Z" fill="#A4DF3F"></path><path d="M81.8509 82.3347C82.6303 82.1498 94.5612 80.2858 99.7386 79.5402C107.546 78.4159 111.467 80.6509 113.487 87.3763C114.442 90.5557 119.408 108.974 119.613 110.095C119.718 110.672 118.788 111.057 113.131 112.776C109.499 113.88 106.21 114.815 105.822 114.854C105.193 114.917 104.87 113.866 102.804 105.017C101.531 99.5685 100.486 94.8102 100.481 94.4436C100.475 93.9402 100.289 93.8349 99.7235 94.0143C99.3115 94.145 94.4816 95.3642 88.9909 96.7233L79.0073 99.1946V101.555C79.0073 102.854 79.1357 105.031 79.2927 106.393C79.5254 108.411 79.4828 108.87 79.0623 108.87C78.7787 108.87 78.32 108.597 78.043 108.263C77.7663 107.929 77.0281 107.442 76.4024 107.18C75.2859 106.714 75.2613 106.648 75.0191 103.499C74.8837 101.736 74.7234 100.244 74.6628 100.184C74.6023 100.123 73.4498 100.379 72.1017 100.753L69.6506 101.433V94.9203C69.6506 88.7056 69.6844 88.3989 70.3882 88.2151C70.794 88.109 71.3462 87.4977 71.6159 86.8567L72.1057 85.691L72.6855 86.915C73.5606 88.7629 73.9895 91.0587 74.2093 95.0736C74.3187 97.0715 74.4768 98.7748 74.5608 98.8585C74.6449 98.9425 75.36 98.8372 76.15 98.6244L77.5869 98.2376L77.0989 93.9219C76.58 89.3305 75.8814 86.43 74.7689 84.2493L74.0838 82.9064L77.2794 81.5726C79.037 80.8391 80.5986 80.2414 80.7501 80.2443C80.9017 80.2473 81.0253 80.7632 81.0253 81.3902C81.0253 82.3868 81.1299 82.5061 81.8509 82.3347Z" fill="#A4DF3F"></path><path d="M50.8178 83.052C51.9575 83.252 51.9879 83.2208 52.229 81.6141L52.4752 79.9713L56.3844 81.2053C58.5346 81.8841 60.5417 82.4444 60.8444 82.451C62.2464 82.4807 62.354 83.0051 61.3904 85.1101C60.166 87.7843 59.4358 91.4117 59.34 95.2934L59.2633 98.4116L60.636 98.6347C61.5027 98.7756 62.0538 98.708 62.1309 98.4519C62.198 98.2285 62.3345 96.1205 62.4343 93.7674C62.5789 90.355 62.7833 89.1298 63.4448 87.7131C64.139 86.2267 64.2979 86.0722 64.4197 86.7668C64.5001 87.2233 65.0494 87.8467 65.6405 88.1523L66.7152 88.7078V101.237L64.4219 100.978C63.1608 100.836 61.969 100.696 61.7738 100.667C61.4689 100.622 61.3614 101.638 61.2345 105.764C61.2194 106.254 60.4955 106.983 59.136 107.878C57.9949 108.63 57.0295 109.202 56.991 109.149C56.9524 109.096 57.1179 107.155 57.3586 104.834C57.5993 102.513 57.771 100.578 57.7402 100.532C57.5938 100.319 52.1336 99.3179 48.1855 98.7807C45.7638 98.4512 42.3987 97.9448 40.7072 97.655C39.0156 97.3655 37.4962 97.1284 37.3307 97.1284C36.9726 97.1284 37.4312 98.6442 39.7098 104.991C41.4737 109.906 41.4803 110.318 39.7939 110.332C39.4167 110.335 36.6097 110.933 33.5561 111.66C30.5029 112.388 27.7829 113.007 27.5125 113.036C27.1826 113.072 25.9343 109.882 23.7288 103.366C20.7288 94.5027 20.4492 93.4404 20.5688 91.357C20.8234 86.9143 23.9001 84.3326 29.8392 83.5779C38.0968 82.5288 46.6176 82.3153 50.8178 83.052Z" fill="#A4DF3F"></path><path d="M69.2144 85.7291C67.0055 86.969 64.7375 84.4651 66.7758 83.0374C67.8956 82.2529 69.0313 82.298 69.8095 83.1581C70.6501 84.0868 70.4278 85.0481 69.2144 85.7291Z" fill="#A4DF3F"></path><path d="M33.1481 114.429C33.2318 114.345 34.5032 113.985 35.9731 113.629C39.6893 112.73 39.8783 112.743 40.1458 113.915C40.2727 114.47 40.7809 116.286 41.2759 117.951C41.7705 119.615 42.0769 121.136 41.9569 121.331C41.8369 121.525 41.1251 121.799 40.3754 121.939C38.157 122.355 36.8045 123.065 35.5838 124.455L34.4338 125.765L20.666 125.565V124.662C20.666 123.62 20.5251 123.702 27.6376 120.614C34.3659 117.693 33.8805 118.068 33.3976 116.165C33.1764 115.294 33.0641 114.513 33.1481 114.429Z" fill="#A4DF3F"></path><path d="M107.627 117.184L111.113 115.991C113.03 115.335 114.791 114.786 115.025 114.77C115.26 114.754 115.557 115.364 115.686 116.124C115.814 116.885 116.044 117.71 116.197 117.956C116.349 118.203 119.09 119.52 122.287 120.884C128.079 123.355 129.049 124.009 128.612 125.148C128.411 125.674 127.543 125.749 121.639 125.749C117.93 125.749 113.411 125.854 111.598 125.983C108.449 126.206 108.264 126.177 107.474 125.341C106.769 124.594 106.683 124.22 106.892 122.813C107.027 121.905 107.248 120.267 107.382 119.173L107.627 117.184Z" fill="#A4DF3F"></path></svg>