<svg xmlns="http://www.w3.org/2000/svg" width="156" height="150" viewBox="0 0 156 150" fill="none"><path d="M0 36.4216C0 33.5229 0.631605 32.1386 2.35452 31.2616C3.98908 30.4297 6.29723 30.6641 7.86312 31.8206C9.69538 33.1748 10.767 35.6675 13.2576 44.3687C16.5722 55.9475 16.4318 54.8522 14.7294 55.8565C12.0512 57.4368 10.9945 61.7636 12.5074 64.9522C13.2033 66.4188 23.8006 79.1625 30.0559 86.0554L33.3525 89.6884L34.3909 88.7126C34.9622 88.1764 35.428 87.6239 35.4267 87.4857C35.4254 87.347 33.6242 85.2655 31.4236 82.8598C27.7989 78.8961 18.2544 67.6737 15.8426 64.5393C14.3659 62.6205 14.5492 60.5686 16.3587 58.7591C18.0904 57.0275 20.0709 56.7965 22.6787 58.023C23.557 58.4359 28.5075 62.914 33.6797 67.9747C40.34 74.491 44.2324 77.9355 47.0204 79.78C51.6021 82.8108 58.1718 89.2729 60.2976 92.8386C63.593 98.3673 65.4637 105.413 64.9642 110.416C64.5513 114.552 63.376 121.315 63.0012 121.71C62.8135 121.908 59.1411 121.771 54.8402 121.407C50.5392 121.042 43.2417 120.505 38.6232 120.214L30.226 119.685L30.4814 116.951C30.785 113.699 30.8152 113.752 24.2603 106.261C12.1321 92.4008 8.11462 87.5561 7.41172 85.9404C6.98832 84.9681 6.32085 81.6132 5.92807 78.4858C5.53528 75.3584 4.73441 69.7487 4.14829 66.0199C1.43204 48.7422 0 38.5233 0 36.4216Z" fill="#49ACFF"></path><path d="M141.07 49.8865C144.377 36.1486 146.193 31.9881 149.29 31.0569C152.321 30.1458 154.916 31.5638 155.727 34.5744C156.08 35.8862 155.815 38.5307 154.389 47.9435C153.411 54.3974 151.829 65.0905 150.873 71.7061C149.917 78.3218 148.828 84.5704 148.452 85.5926C147.861 87.2005 138.118 98.9976 128.674 109.541C125.491 113.095 125.057 114.014 125.163 116.977L125.258 119.601L118.069 120.151C114.116 120.453 106.944 121.071 102.133 121.523C97.3212 121.975 93.323 122.29 93.2477 122.221C93.1725 122.153 92.6861 120.453 92.1669 118.444C90.8753 113.444 90.7957 103.722 92.0169 100.137C93.3623 96.186 95.6237 92.2429 98.5236 88.7896C101.467 85.2852 103.528 83.5133 109.608 79.2578C111.751 77.758 114.585 75.4944 115.906 74.2277C117.227 72.961 121.286 69.034 124.926 65.5012C128.566 61.9679 132.209 58.6716 133.022 58.1761C134.657 57.1792 137.153 57.0047 138.833 57.7701C139.905 58.2583 141.28 60.5008 141.28 61.7605C141.28 63.0719 135.514 70.2815 125.17 81.9028L120.183 87.5063L121.193 88.5814C121.748 89.1723 122.351 89.6031 122.532 89.5384C122.713 89.4737 124.871 87.1572 127.328 84.3907C138.777 71.497 143.201 65.915 143.949 63.4179C144.65 61.0769 143.788 58.365 141.668 56.2445L139.953 54.5294L141.07 49.8865Z" fill="#49ACFF"></path><path d="M70.8577 120.301C73.4117 119.48 76.2679 116.561 77.2652 113.753C78.1229 111.339 78.3626 111.341 79.1381 113.769C79.9071 116.178 82.7261 119.111 85.3597 120.244L87.6464 121.228L85.4511 122.272C82.5774 123.637 80.2504 126.011 79.3293 128.518C78.2843 131.36 78.0831 131.453 77.4078 129.408C76.519 126.714 73.4104 123.484 70.821 122.565C69.6365 122.144 68.732 121.601 68.8103 121.357C68.8886 121.113 69.8102 120.638 70.8577 120.301Z" fill="#49ACFF"></path><path d="M28.6623 125.944C28.8325 125.102 29.0582 124.265 29.1644 124.085C29.4142 123.66 28.591 123.623 41.5008 124.632C57.654 125.895 62.1662 126.29 62.3206 126.454C62.3954 126.534 62.014 128.962 61.4729 131.848C60.9323 134.735 59.9481 140.001 59.2863 143.549L58.0835 150H40.8517C28.161 150 23.6195 149.868 23.6195 149.497C23.6195 149.221 24.6846 144.153 25.9867 138.234C27.2884 132.316 28.4926 126.786 28.6623 125.944Z" fill="#49ACFF"></path><path d="M105.851 125.279C110.782 124.897 116.589 124.425 118.754 124.23C120.919 124.034 123.51 123.848 124.513 123.816L126.335 123.757L127.881 130.208C130.026 139.161 132.094 148.553 132.094 149.341C132.094 149.917 129.949 150 115.079 150H98.0631L97.7556 147.349C97.5863 145.891 97.5224 144.624 97.6134 144.533C97.7044 144.442 99.8218 144.157 102.319 143.901C107.024 143.419 108.037 143.02 108.037 141.652C108.037 140.174 106.597 139.858 102.137 140.355C99.8678 140.608 97.7477 140.815 97.4249 140.815C96.6682 140.815 95.6945 136.43 96.4049 136.22C96.6682 136.142 100.321 135.75 104.523 135.35C108.725 134.95 112.513 134.433 112.943 134.204C113.91 133.686 113.955 132.366 113.03 131.599C112.333 131.02 111.465 131.063 97.9541 132.343L95.0883 132.615L93.7604 126.431L95.3223 126.202C96.1809 126.076 100.919 125.661 105.851 125.279Z" fill="#49ACFF"></path><path fill-rule="evenodd" clip-rule="evenodd" d="M48.192 0.838324C39.6378 3.01263 32.1928 9.01769 28.1941 16.9683C23.8783 25.5509 23.8377 37.8095 28.097 46.3335C31.1881 52.5192 32.4164 53.8405 56.1614 76.5236C62.2959 82.3834 69.737 89.6159 72.6973 92.595L78.0795 98.0122L90.5676 85.8433C97.4366 79.1502 107.073 69.824 111.984 65.1176C124.961 52.6788 127.113 49.9197 129.719 42.3768C131.072 38.4607 131.147 37.914 131.156 31.9028C131.167 25.8007 131.11 25.3956 129.664 21.2049C126.025 10.6579 117.408 2.69682 107.337 0.578058C102.374 -0.466013 95.0777 -0.060963 90.3433 1.52155C86.2317 2.89585 82.572 5.10208 80.0425 7.73085L78.3358 9.50495L75.6685 7.24665C72.1689 4.28371 69.716 2.88579 65.5174 1.46118C60.7694 -0.150193 53.1565 -0.424009 48.192 0.838324ZM36.9977 20.4434C39.5591 15.6373 45.6004 11.2095 51.1357 10.0806C54.3956 9.41615 59.9265 9.81898 62.9599 10.9422C68.7231 13.0759 73.3822 17.4993 76.1392 23.454C76.9392 25.1826 77.594 26.8063 77.594 27.0626C77.594 28.2838 78.4412 27.2835 79.2933 25.0567C80.5508 21.7705 83.7473 17.0273 86.0992 14.9571C90.104 11.4317 95.082 9.58717 100.54 9.60598C106.407 9.62653 111.406 11.5979 115.294 15.4243C119.816 19.8748 121.885 24.8834 121.92 31.4654C121.946 36.279 121.175 39.3522 118.807 43.8753C117.015 47.298 116.925 47.3924 94.2759 69.7068L78.3717 85.3757L72.1873 79.2687C68.7856 75.9099 61.1806 68.584 55.2866 62.9888C41.4499 49.8528 39.0513 47.3023 37.1735 43.7292C33.4005 36.5489 33.3305 27.3233 36.9977 20.4434Z" fill="#FF4848"></path></svg>