<svg xmlns="http://www.w3.org/2000/svg" width="121" height="386" viewBox="0 0 121 386" fill="none"><mask id="path-1-inside-1_96_820" fill="white"><path d="M76.2804 276.402C99.1544 260.734 114.962 238.553 119.507 215.745C121.303 206.731 121.321 188.67 119.543 178.521C114.71 150.921 99.8364 127.337 75.9114 109.341L68.3124 103.624L67.7024 94.3823C65.6654 63.4813 52.5504 37.8243 28.1294 16.9673C19.0494 9.21334 3.37943 -0.714666 1.41143 0.040339C-1.01857 0.973353 -0.149596 2.07736 5.76141 5.57135C23.1314 15.8373 38.0204 29.5853 47.5334 44.1403C58.6664 61.1753 63.0124 75.2573 63.7354 96.6403C64.2894 113.022 62.5764 123.028 57.1804 134.928C48.3344 154.438 29.6974 173.297 8.22539 184.468C3.70739 186.818 0.0113993 189.142 0.0113992 189.632C0.0113991 192.014 2.75839 191.406 10.4314 187.324C27.2294 178.389 43.0094 164.649 52.6054 150.606C55.2224 146.775 57.6854 143.64 58.0784 143.64C58.4704 143.64 61.4404 145.59 64.6784 147.974C81.4814 160.344 89.6644 177.183 88.8404 197.7C88.4874 206.475 88.1014 208.073 84.6464 215.063C82.2654 219.882 78.7124 224.938 75.1514 228.578C69.6014 234.249 57.8864 242.64 55.5164 242.64C54.8654 242.64 53.8124 241.499 53.1774 240.104C51.2544 235.885 44.0244 226.541 37.0754 219.295C23.6114 205.255 0.0113992 190.015 0.011399 195.361C0.011399 195.792 3.55438 198.302 7.88438 200.939C37.8094 219.162 56.8924 245.074 62.5504 275.165C64.9194 287.77 64.1714 309.291 61.0214 319.14C56.1174 334.469 48.7604 345.81 35.3824 358.662C26.0874 367.592 16.7604 374.278 6.26139 379.538C0.178391 382.585 -1.03363 383.876 1.00437 385.135C2.50137 386.061 17.4174 377.952 26.2084 371.434C54.8464 350.2 69.2894 322.118 67.8524 290.465L67.4864 282.424L76.2804 276.402Z"></path><path d="M30.8484 345.212C42.5334 333.949 49.6534 321.672 52.5774 307.746C54.3074 299.511 53.7174 281.741 51.4144 272.64C47.8334 258.496 39.6154 244.355 28.5374 233.278C18.1254 222.865 0.0113983 211.6 0.0113981 215.537C0.0113981 216.03 4.40442 219.358 9.77342 222.933C25.9724 233.717 38.4464 248.237 44.6014 263.477C49.9094 276.617 51.6334 296.784 48.5094 309.18C45.8874 319.585 39.3914 331.07 31.2114 339.766C24.0884 347.337 10.1384 357.707 3.26139 360.543C-0.070609 361.916 -1.20763 364.64 1.55137 364.64C6.02637 364.64 20.9824 354.722 30.8484 345.212Z"></path><path d="M46.3834 130.64C48.9634 125.415 51.7244 117.99 52.5194 114.14C54.2874 105.578 53.7714 87.7863 51.5054 79.2013C46.5324 60.3573 36.0594 44.4413 20.5114 32.1003C9.51241 23.3703 0.0114067 18.4743 0.0114066 21.5373C0.0114066 22.0303 4.40443 25.3583 9.77343 28.9333C20.7924 36.2683 33.6394 49.0633 38.8664 57.9063C46.4844 70.7973 50.0114 83.9583 50.0114 99.4953C50.0114 117.457 44.1104 132.054 31.3774 145.589C24.0744 153.352 10.2134 163.676 3.22338 166.558C1.41538 167.304 0.111429 168.415 0.325426 169.027C1.82243 173.313 18.1954 163.426 31.6024 150.14C40.3464 141.474 42.3194 138.872 46.3834 130.64Z"></path><path d="M20.5924 332.256C30.0194 324.332 37.1714 311.869 39.0234 300.14C41.7054 283.159 35.1214 263.142 22.5994 250.205C13.2424 240.539 0.0113974 232.627 0.0113972 236.699C0.0113972 237.163 3.0494 239.51 6.7614 241.914C19.4634 250.14 28.7884 261.624 33.1774 274.45C36.1974 283.273 36.4434 299.467 33.6764 307.403C29.5824 319.148 18.1194 331.681 5.38841 338.333C0.044405 341.125 -1.64164 343.64 1.83036 343.64C4.14636 343.64 14.5834 337.307 20.5924 332.256Z"></path><path d="M23.0584 135.64C32.4874 126.394 37.2024 117.681 39.0244 106.14C41.3994 91.0913 36.6394 73.8253 26.4644 60.5863C20.1974 52.4313 6.15842 41.6403 1.81542 41.6403C-1.50558 41.6403 -0.0405963 43.5093 6.76141 47.9513C19.5844 56.3233 28.8014 67.6633 33.1774 80.4503C36.1974 89.2733 36.4434 105.467 33.6764 113.403C29.5824 125.148 18.1194 137.681 5.38842 144.333C0.0734128 147.11 -1.64459 149.64 1.78441 149.64C5.06041 149.64 16.3744 142.195 23.0584 135.64Z"></path></mask><path d="M76.2804 276.402C99.1544 260.734 114.962 238.553 119.507 215.745C121.303 206.731 121.321 188.67 119.543 178.521C114.71 150.921 99.8364 127.337 75.9114 109.341L68.3124 103.624L67.7024 94.3823C65.6654 63.4813 52.5504 37.8243 28.1294 16.9673C19.0494 9.21334 3.37943 -0.714666 1.41143 0.040339C-1.01857 0.973353 -0.149596 2.07736 5.76141 5.57135C23.1314 15.8373 38.0204 29.5853 47.5334 44.1403C58.6664 61.1753 63.0124 75.2573 63.7354 96.6403C64.2894 113.022 62.5764 123.028 57.1804 134.928C48.3344 154.438 29.6974 173.297 8.22539 184.468C3.70739 186.818 0.0113993 189.142 0.0113992 189.632C0.0113991 192.014 2.75839 191.406 10.4314 187.324C27.2294 178.389 43.0094 164.649 52.6054 150.606C55.2224 146.775 57.6854 143.64 58.0784 143.64C58.4704 143.64 61.4404 145.59 64.6784 147.974C81.4814 160.344 89.6644 177.183 88.8404 197.7C88.4874 206.475 88.1014 208.073 84.6464 215.063C82.2654 219.882 78.7124 224.938 75.1514 228.578C69.6014 234.249 57.8864 242.64 55.5164 242.64C54.8654 242.64 53.8124 241.499 53.1774 240.104C51.2544 235.885 44.0244 226.541 37.0754 219.295C23.6114 205.255 0.0113992 190.015 0.011399 195.361C0.011399 195.792 3.55438 198.302 7.88438 200.939C37.8094 219.162 56.8924 245.074 62.5504 275.165C64.9194 287.77 64.1714 309.291 61.0214 319.14C56.1174 334.469 48.7604 345.81 35.3824 358.662C26.0874 367.592 16.7604 374.278 6.26139 379.538C0.178391 382.585 -1.03363 383.876 1.00437 385.135C2.50137 386.061 17.4174 377.952 26.2084 371.434C54.8464 350.2 69.2894 322.118 67.8524 290.465L67.4864 282.424L76.2804 276.402Z" stroke="#078EFF" stroke-width="2" mask="url(#path-1-inside-1_96_820)"></path><path d="M30.8484 345.212C42.5334 333.949 49.6534 321.672 52.5774 307.746C54.3074 299.511 53.7174 281.741 51.4144 272.64C47.8334 258.496 39.6154 244.355 28.5374 233.278C18.1254 222.865 0.0113983 211.6 0.0113981 215.537C0.0113981 216.03 4.40442 219.358 9.77342 222.933C25.9724 233.717 38.4464 248.237 44.6014 263.477C49.9094 276.617 51.6334 296.784 48.5094 309.18C45.8874 319.585 39.3914 331.07 31.2114 339.766C24.0884 347.337 10.1384 357.707 3.26139 360.543C-0.070609 361.916 -1.20763 364.64 1.55137 364.64C6.02637 364.64 20.9824 354.722 30.8484 345.212Z" stroke="#078EFF" stroke-width="2" mask="url(#path-1-inside-1_96_820)"></path><path d="M46.3834 130.64C48.9634 125.415 51.7244 117.99 52.5194 114.14C54.2874 105.578 53.7714 87.7863 51.5054 79.2013C46.5324 60.3573 36.0594 44.4413 20.5114 32.1003C9.51241 23.3703 0.0114067 18.4743 0.0114066 21.5373C0.0114066 22.0303 4.40443 25.3583 9.77343 28.9333C20.7924 36.2683 33.6394 49.0633 38.8664 57.9063C46.4844 70.7973 50.0114 83.9583 50.0114 99.4953C50.0114 117.457 44.1104 132.054 31.3774 145.589C24.0744 153.352 10.2134 163.676 3.22338 166.558C1.41538 167.304 0.111429 168.415 0.325426 169.027C1.82243 173.313 18.1954 163.426 31.6024 150.14C40.3464 141.474 42.3194 138.872 46.3834 130.64Z" stroke="#078EFF" stroke-width="2" mask="url(#path-1-inside-1_96_820)"></path><path d="M20.5924 332.256C30.0194 324.332 37.1714 311.869 39.0234 300.14C41.7054 283.159 35.1214 263.142 22.5994 250.205C13.2424 240.539 0.0113974 232.627 0.0113972 236.699C0.0113972 237.163 3.0494 239.51 6.7614 241.914C19.4634 250.14 28.7884 261.624 33.1774 274.45C36.1974 283.273 36.4434 299.467 33.6764 307.403C29.5824 319.148 18.1194 331.681 5.38841 338.333C0.044405 341.125 -1.64164 343.64 1.83036 343.64C4.14636 343.64 14.5834 337.307 20.5924 332.256Z" stroke="#078EFF" stroke-width="2" mask="url(#path-1-inside-1_96_820)"></path><path d="M23.0584 135.64C32.4874 126.394 37.2024 117.681 39.0244 106.14C41.3994 91.0913 36.6394 73.8253 26.4644 60.5863C20.1974 52.4313 6.15842 41.6403 1.81542 41.6403C-1.50558 41.6403 -0.0405963 43.5093 6.76141 47.9513C19.5844 56.3233 28.8014 67.6633 33.1774 80.4503C36.1974 89.2733 36.4434 105.467 33.6764 113.403C29.5824 125.148 18.1194 137.681 5.38842 144.333C0.0734128 147.11 -1.64459 149.64 1.78441 149.64C5.06041 149.64 16.3744 142.195 23.0584 135.64Z" stroke="#078EFF" stroke-width="2" mask="url(#path-1-inside-1_96_820)"></path></svg>